<mxfile host="app.diagrams.net" agent="Mozilla/5.0 (Windows NT 10.0; Win64; x64) AppleWebKit/537.36 (KHTML, like Gecko) Chrome/131.0.0.0 Safari/537.36 Edg/131.0.0.0" version="25.0.3">
  <diagram id="C5RBs43oDa-KdzZeNtuy" name="Page-1">
    <mxGraphModel dx="1699" dy="477" grid="1" gridSize="10" guides="1" tooltips="1" connect="1" arrows="1" fold="1" page="1" pageScale="1" pageWidth="827" pageHeight="1169" math="0" shadow="0">
      <root>
        <mxCell id="WIyWlLk6GJQsqaUBKTNV-0" />
        <mxCell id="WIyWlLk6GJQsqaUBKTNV-1" parent="WIyWlLk6GJQsqaUBKTNV-0" />
        <mxCell id="mvioNwK95yMqdUQ73LqQ-36" value="" style="swimlane;fontFamily=Sarabun;fontSource=https%3A%2F%2Ffonts.googleapis.com%2Fcss%3Ffamily%3DSarabun;" parent="WIyWlLk6GJQsqaUBKTNV-1" vertex="1">
          <mxGeometry x="-730" y="60" width="890" height="2600" as="geometry" />
        </mxCell>
        <mxCell id="pXdczCPLqUhGzNIIeVMN-3" style="edgeStyle=orthogonalEdgeStyle;rounded=0;orthogonalLoop=1;jettySize=auto;html=1;entryX=0.5;entryY=0;entryDx=0;entryDy=0;" parent="mvioNwK95yMqdUQ73LqQ-36" source="mvioNwK95yMqdUQ73LqQ-35" edge="1" target="pXdczCPLqUhGzNIIeVMN-5">
          <mxGeometry relative="1" as="geometry">
            <mxPoint x="320" y="130" as="targetPoint" />
          </mxGeometry>
        </mxCell>
        <mxCell id="mvioNwK95yMqdUQ73LqQ-35" value="&lt;font data-font-src=&quot;https://fonts.googleapis.com/css?family=Sarabun&quot; face=&quot;Sarabun&quot;&gt;Start&lt;/font&gt;" style="ellipse;whiteSpace=wrap;html=1;" parent="mvioNwK95yMqdUQ73LqQ-36" vertex="1">
          <mxGeometry x="255" y="40" width="130" height="30" as="geometry" />
        </mxCell>
        <mxCell id="KdcVFfhlTFuf7OPM0Tih-7" style="edgeStyle=orthogonalEdgeStyle;rounded=0;orthogonalLoop=1;jettySize=auto;html=1;entryX=0.5;entryY=0;entryDx=0;entryDy=0;" edge="1" parent="mvioNwK95yMqdUQ73LqQ-36" source="pXdczCPLqUhGzNIIeVMN-5" target="KdcVFfhlTFuf7OPM0Tih-0">
          <mxGeometry relative="1" as="geometry" />
        </mxCell>
        <mxCell id="pXdczCPLqUhGzNIIeVMN-5" value="Read number" style="shape=parallelogram;perimeter=parallelogramPerimeter;whiteSpace=wrap;html=1;fixedSize=1;" parent="mvioNwK95yMqdUQ73LqQ-36" vertex="1">
          <mxGeometry x="235" y="310" width="170" height="70" as="geometry" />
        </mxCell>
        <mxCell id="pXdczCPLqUhGzNIIeVMN-17" style="edgeStyle=orthogonalEdgeStyle;rounded=0;orthogonalLoop=1;jettySize=auto;html=1;" parent="mvioNwK95yMqdUQ73LqQ-36" edge="1">
          <mxGeometry relative="1" as="geometry">
            <mxPoint x="320" y="720" as="targetPoint" />
            <mxPoint x="320" y="660" as="sourcePoint" />
          </mxGeometry>
        </mxCell>
        <mxCell id="KdcVFfhlTFuf7OPM0Tih-1" style="edgeStyle=orthogonalEdgeStyle;rounded=0;orthogonalLoop=1;jettySize=auto;html=1;" edge="1" parent="mvioNwK95yMqdUQ73LqQ-36" source="KdcVFfhlTFuf7OPM0Tih-0">
          <mxGeometry relative="1" as="geometry">
            <mxPoint x="320" y="880" as="targetPoint" />
          </mxGeometry>
        </mxCell>
        <mxCell id="KdcVFfhlTFuf7OPM0Tih-31" style="edgeStyle=orthogonalEdgeStyle;rounded=0;orthogonalLoop=1;jettySize=auto;html=1;entryX=0.5;entryY=0;entryDx=0;entryDy=0;" edge="1" parent="mvioNwK95yMqdUQ73LqQ-36" source="KdcVFfhlTFuf7OPM0Tih-0" target="KdcVFfhlTFuf7OPM0Tih-26">
          <mxGeometry relative="1" as="geometry">
            <Array as="points">
              <mxPoint x="540" y="760" />
              <mxPoint x="540" y="1680" />
            </Array>
          </mxGeometry>
        </mxCell>
        <mxCell id="KdcVFfhlTFuf7OPM0Tih-0" value="i" style="rhombus;whiteSpace=wrap;html=1;" vertex="1" parent="mvioNwK95yMqdUQ73LqQ-36">
          <mxGeometry x="280" y="720" width="80" height="80" as="geometry" />
        </mxCell>
        <mxCell id="KdcVFfhlTFuf7OPM0Tih-3" style="edgeStyle=orthogonalEdgeStyle;rounded=0;orthogonalLoop=1;jettySize=auto;html=1;" edge="1" parent="mvioNwK95yMqdUQ73LqQ-36" source="KdcVFfhlTFuf7OPM0Tih-2">
          <mxGeometry relative="1" as="geometry">
            <mxPoint x="320" y="1030" as="targetPoint" />
          </mxGeometry>
        </mxCell>
        <mxCell id="KdcVFfhlTFuf7OPM0Tih-2" value="Display i" style="shape=parallelogram;perimeter=parallelogramPerimeter;whiteSpace=wrap;html=1;fixedSize=1;" vertex="1" parent="mvioNwK95yMqdUQ73LqQ-36">
          <mxGeometry x="260" y="880" width="120" height="60" as="geometry" />
        </mxCell>
        <mxCell id="KdcVFfhlTFuf7OPM0Tih-10" style="edgeStyle=orthogonalEdgeStyle;rounded=0;orthogonalLoop=1;jettySize=auto;html=1;" edge="1" parent="mvioNwK95yMqdUQ73LqQ-36" source="KdcVFfhlTFuf7OPM0Tih-5">
          <mxGeometry relative="1" as="geometry">
            <mxPoint x="310" y="690" as="targetPoint" />
            <Array as="points">
              <mxPoint x="320" y="1400" />
              <mxPoint x="50" y="1400" />
              <mxPoint x="50" y="690" />
            </Array>
          </mxGeometry>
        </mxCell>
        <mxCell id="KdcVFfhlTFuf7OPM0Tih-5" value="sum&amp;nbsp; *= i" style="rounded=0;whiteSpace=wrap;html=1;" vertex="1" parent="mvioNwK95yMqdUQ73LqQ-36">
          <mxGeometry x="255" y="1310" width="120" height="60" as="geometry" />
        </mxCell>
        <mxCell id="KdcVFfhlTFuf7OPM0Tih-8" value="i = num" style="rounded=0;whiteSpace=wrap;html=1;" vertex="1" parent="mvioNwK95yMqdUQ73LqQ-36">
          <mxGeometry x="260" y="610" width="120" height="60" as="geometry" />
        </mxCell>
        <mxCell id="KdcVFfhlTFuf7OPM0Tih-11" value="i--" style="rounded=0;whiteSpace=wrap;html=1;" vertex="1" parent="mvioNwK95yMqdUQ73LqQ-36">
          <mxGeometry y="890" width="120" height="60" as="geometry" />
        </mxCell>
        <mxCell id="KdcVFfhlTFuf7OPM0Tih-15" style="edgeStyle=orthogonalEdgeStyle;rounded=0;orthogonalLoop=1;jettySize=auto;html=1;" edge="1" parent="mvioNwK95yMqdUQ73LqQ-36" source="KdcVFfhlTFuf7OPM0Tih-12">
          <mxGeometry relative="1" as="geometry">
            <mxPoint x="320" y="1150" as="targetPoint" />
          </mxGeometry>
        </mxCell>
        <mxCell id="KdcVFfhlTFuf7OPM0Tih-23" style="edgeStyle=orthogonalEdgeStyle;rounded=0;orthogonalLoop=1;jettySize=auto;html=1;entryX=1;entryY=0.5;entryDx=0;entryDy=0;" edge="1" parent="mvioNwK95yMqdUQ73LqQ-36" source="KdcVFfhlTFuf7OPM0Tih-12" target="KdcVFfhlTFuf7OPM0Tih-19">
          <mxGeometry relative="1" as="geometry">
            <Array as="points">
              <mxPoint x="470" y="1069" />
              <mxPoint x="470" y="1265" />
            </Array>
          </mxGeometry>
        </mxCell>
        <mxCell id="KdcVFfhlTFuf7OPM0Tih-12" value="i &amp;gt; 1" style="rhombus;whiteSpace=wrap;html=1;" vertex="1" parent="mvioNwK95yMqdUQ73LqQ-36">
          <mxGeometry x="280" y="1029" width="80" height="81" as="geometry" />
        </mxCell>
        <mxCell id="KdcVFfhlTFuf7OPM0Tih-21" style="edgeStyle=orthogonalEdgeStyle;rounded=0;orthogonalLoop=1;jettySize=auto;html=1;entryX=0.5;entryY=0;entryDx=0;entryDy=0;" edge="1" parent="mvioNwK95yMqdUQ73LqQ-36" source="KdcVFfhlTFuf7OPM0Tih-13" target="KdcVFfhlTFuf7OPM0Tih-19">
          <mxGeometry relative="1" as="geometry" />
        </mxCell>
        <mxCell id="KdcVFfhlTFuf7OPM0Tih-13" value="Display &quot; x &quot;" style="shape=parallelogram;perimeter=parallelogramPerimeter;whiteSpace=wrap;html=1;fixedSize=1;" vertex="1" parent="mvioNwK95yMqdUQ73LqQ-36">
          <mxGeometry x="260" y="1150" width="120" height="60" as="geometry" />
        </mxCell>
        <mxCell id="KdcVFfhlTFuf7OPM0Tih-19" value="" style="ellipse;whiteSpace=wrap;html=1;aspect=fixed;" vertex="1" parent="mvioNwK95yMqdUQ73LqQ-36">
          <mxGeometry x="305" y="1250" width="30" height="30" as="geometry" />
        </mxCell>
        <mxCell id="KdcVFfhlTFuf7OPM0Tih-22" style="edgeStyle=orthogonalEdgeStyle;rounded=0;orthogonalLoop=1;jettySize=auto;html=1;entryX=0.55;entryY=-0.021;entryDx=0;entryDy=0;entryPerimeter=0;" edge="1" parent="mvioNwK95yMqdUQ73LqQ-36" source="KdcVFfhlTFuf7OPM0Tih-19" target="KdcVFfhlTFuf7OPM0Tih-5">
          <mxGeometry relative="1" as="geometry" />
        </mxCell>
        <mxCell id="KdcVFfhlTFuf7OPM0Tih-32" style="edgeStyle=orthogonalEdgeStyle;rounded=0;orthogonalLoop=1;jettySize=auto;html=1;" edge="1" parent="mvioNwK95yMqdUQ73LqQ-36" source="KdcVFfhlTFuf7OPM0Tih-26">
          <mxGeometry relative="1" as="geometry">
            <mxPoint x="317.5" y="1920" as="targetPoint" />
          </mxGeometry>
        </mxCell>
        <mxCell id="KdcVFfhlTFuf7OPM0Tih-26" value="Display sum and num" style="shape=parallelogram;perimeter=parallelogramPerimeter;whiteSpace=wrap;html=1;fixedSize=1;" vertex="1" parent="mvioNwK95yMqdUQ73LqQ-36">
          <mxGeometry x="230" y="1730" width="175" height="60" as="geometry" />
        </mxCell>
        <mxCell id="KdcVFfhlTFuf7OPM0Tih-28" value="Yes" style="text;html=1;align=center;verticalAlign=middle;resizable=0;points=[];autosize=1;strokeColor=none;fillColor=none;" vertex="1" parent="mvioNwK95yMqdUQ73LqQ-36">
          <mxGeometry x="260" y="1110" width="40" height="30" as="geometry" />
        </mxCell>
        <mxCell id="KdcVFfhlTFuf7OPM0Tih-29" value="No" style="text;html=1;align=center;verticalAlign=middle;resizable=0;points=[];autosize=1;strokeColor=none;fillColor=none;" vertex="1" parent="mvioNwK95yMqdUQ73LqQ-36">
          <mxGeometry x="360" y="1010" width="40" height="30" as="geometry" />
        </mxCell>
        <mxCell id="KdcVFfhlTFuf7OPM0Tih-30" value="No" style="text;html=1;align=center;verticalAlign=middle;resizable=0;points=[];autosize=1;strokeColor=none;fillColor=none;" vertex="1" parent="mvioNwK95yMqdUQ73LqQ-36">
          <mxGeometry x="350" y="710" width="40" height="30" as="geometry" />
        </mxCell>
        <mxCell id="KdcVFfhlTFuf7OPM0Tih-34" value="&lt;font face=&quot;Sarabun&quot;&gt;End&lt;/font&gt;" style="ellipse;whiteSpace=wrap;html=1;" vertex="1" parent="mvioNwK95yMqdUQ73LqQ-36">
          <mxGeometry x="250" y="1920" width="130" height="30" as="geometry" />
        </mxCell>
        <mxCell id="KdcVFfhlTFuf7OPM0Tih-27" value="Yes" style="text;html=1;align=center;verticalAlign=middle;resizable=0;points=[];autosize=1;strokeColor=none;fillColor=none;" vertex="1" parent="WIyWlLk6GJQsqaUBKTNV-1">
          <mxGeometry x="-390" y="848" width="40" height="30" as="geometry" />
        </mxCell>
      </root>
    </mxGraphModel>
  </diagram>
</mxfile>
